<svg viewBox="0 0 900 850" xmlns="http://www.w3.org/2000/svg" font-family="'Segoe UI', Arial, sans-serif">
  <rect x="0" y="0" width="900" height="850" fill="#f3f4f6"/>

  <!-- Subtle map graticule -->
  <g stroke="#e2e4e8" stroke-width="1">
    <line x1="50" y1="0" x2="50" y2="850"/><line x1="150" y1="0" x2="150" y2="850"/>
    <line x1="250" y1="0" x2="250" y2="850"/><line x1="350" y1="0" x2="350" y2="850"/>
    <line x1="450" y1="0" x2="450" y2="850"/><line x1="550" y1="0" x2="550" y2="850"/>
    <line x1="650" y1="0" x2="650" y2="850"/><line x1="750" y1="0" x2="750" y2="850"/>
    <line x1="850" y1="0" x2="850" y2="850"/>
    <line x1="0" y1="50" x2="900" y2="50"/><line x1="0" y1="150" x2="900" y2="150"/>
    <line x1="0" y1="250" x2="900" y2="250"/><line x1="0" y1="350" x2="900" y2="350"/>
    <line x1="0" y1="450" x2="900" y2="450"/><line x1="0" y1="550" x2="900" y2="550"/>
    <line x1="0" y1="650" x2="900" y2="650"/><line x1="0" y1="750" x2="900" y2="750"/>
  </g>

  <!-- Louisiana border reference -->
  <path d="M 845,0 C 830,120 850,240 800,340 C 815,420 790,480 800,560 C 780,620 760,680 700,715 L 900,850 L 900,0 Z"
        fill="#e9edf1" fill-opacity="0.6"/>
  <text x="855" y="130" font-size="13" fill="#9aa5b1" transform="rotate(90 855 130)">LOUISIANA</text>

  <!-- Gulf / Sabine Lake -->
  <path d="M 620,760 C 660,780 720,800 780,820 L 900,850 L 900,780 C 850,760 760,730 700,715 Z" fill="#bcdcef"/>
  <text x="768" y="800" font-size="13" fill="#4a7896" font-style="italic">Gulf Coast</text>

  <!-- Service area shape -->
  <path d="M 330,190
           C 400,145 520,130 630,138
           C 715,144 790,162 818,196
           C 838,232 806,262 796,300
           C 814,338 802,378 772,408
           C 792,438 782,470 796,500
           C 818,528 792,558 752,580
           C 742,620 732,660 704,702
           C 674,752 632,782 582,798
           C 500,818 398,812 340,792
           C 282,772 232,742 212,692
           C 192,642 197,592 222,542
           C 202,492 212,442 242,392
           C 262,342 272,292 302,242
           C 308,218 312,198 330,190 Z"
        fill="#ef4444" fill-opacity="0.16" stroke="#ef4444" stroke-width="4" stroke-linejoin="round"/>

  <!-- Highways -->
  <g stroke="#c6cad1" stroke-width="5" fill="none">
    <path d="M 120,600 C 300,585 450,568 598,560 C 680,566 730,570 860,580"/>
    <path d="M 655,200 C 660,300 668,410 697,522 C 705,555 712,580 718,608"/>
    <path d="M 470,245 C 500,330 530,410 565,500 C 585,545 600,600 598,560"/>
    <path d="M 300,205 C 420,195 560,195 700,205"/>
  </g>
  <g font-size="12" font-weight="700" fill="#57606b">
    <circle cx="330" cy="596" r="13" fill="#ffffff" stroke="#c6cad1" stroke-width="2"/>
    <text x="330" y="601" text-anchor="middle">10</text>
    <circle cx="694" cy="430" r="13" fill="#ffffff" stroke="#c6cad1" stroke-width="2"/>
    <text x="694" y="435" text-anchor="middle">96</text>
    <circle cx="540" cy="420" r="13" fill="#ffffff" stroke="#c6cad1" stroke-width="2"/>
    <text x="540" y="425" text-anchor="middle">69</text>
    <circle cx="500" cy="200" r="13" fill="#ffffff" stroke="#c6cad1" stroke-width="2"/>
    <text x="500" y="205" text-anchor="middle">190</text>
  </g>

  <!-- Reference city outside coverage -->
  <circle cx="150" cy="560" r="5" fill="#a1a1aa"/>
  <text x="162" y="565" font-size="15" fill="#71717a">Houston</text>
  <text x="162" y="582" font-size="11" fill="#a1a1aa">(outside service area)</text>

  <!-- HQ marker -->
  <circle cx="598" cy="560" r="8" fill="#141416"/>
  <circle cx="598" cy="560" r="13" fill="none" stroke="#141416" stroke-width="2"/>
  <text x="612" y="556" font-size="19" font-weight="800" fill="#141416">Beaumont</text>
  <text x="612" y="575" font-size="12" fill="#71717a">Headquarters</text>

  <!-- Service town markers -->
  <g fill="#ef4444">
    <circle cx="470" cy="245" r="5"/>
    <circle cx="655" cy="200" r="5"/>
    <circle cx="757" cy="235" r="5"/>
    <circle cx="518" cy="480" r="5"/>
    <circle cx="565" cy="500" r="5"/>
    <circle cx="646" cy="558" r="5"/>
    <circle cx="718" cy="608" r="5"/>
    <circle cx="765" cy="572" r="5"/>
    <circle cx="697" cy="522" r="5"/>
    <circle cx="248" cy="300" r="5"/>
  </g>
  <g font-size="14" fill="#3f3f46">
    <text x="480" y="240">Woodville</text>
    <text x="665" y="196">Jasper</text>
    <text x="712" y="230">Newton</text>
    <text x="528" y="476">Kountze</text>
    <text x="575" y="498">Silsbee</text>
    <text x="580" y="562">Vidor</text>
    <text x="728" y="605">Bridge City</text>
    <text x="704" y="568">Orange</text>
    <text x="608" y="520">Mauriceville</text>
    <text x="200" y="296">Livingston</text>
  </g>

  <!-- Compass -->
  <g transform="translate(838,60)">
    <circle r="26" fill="#ffffff" stroke="#d4d4d8" stroke-width="1.5"/>
    <path d="M0,-18 L7,4 L0,-2 L-7,4 Z" fill="#3f3f46"/>
    <text x="0" y="-24" text-anchor="middle" font-size="12" font-weight="700" fill="#3f3f46">N</text>
  </g>

  <!-- Scale bar -->
  <g transform="translate(40,796)">
    <line x1="0" y1="0" x2="120" y2="0" stroke="#57606b" stroke-width="2"/>
    <line x1="0" y1="-5" x2="0" y2="5" stroke="#57606b" stroke-width="2"/>
    <line x1="60" y1="-5" x2="60" y2="5" stroke="#57606b" stroke-width="2"/>
    <line x1="120" y1="-5" x2="120" y2="5" stroke="#57606b" stroke-width="2"/>
    <text x="0" y="18" font-size="11" fill="#57606b">0</text>
    <text x="52" y="18" font-size="11" fill="#57606b">10 mi</text>
    <text x="105" y="18" font-size="11" fill="#57606b">20 mi</text>
  </g>

  <!-- Legend -->
  <g transform="translate(30,30)">
    <rect x="0" y="0" width="230" height="56" rx="10" fill="#ffffff" stroke="#eeeeef"/>
    <circle cx="24" cy="20" r="6" fill="#141416"/>
    <text x="40" y="25" font-size="13" fill="#3f3f46">Headquarters</text>
    <circle cx="24" cy="42" r="6" fill="#ef4444"/>
    <text x="40" y="47" font-size="13" fill="#3f3f46">Areas we service</text>
  </g>
</svg>
