<svg viewBox="0 0 900 850" xmlns="http://www.w3.org/2000/svg" font-family="'Segoe UI', Arial, sans-serif">
  <rect x="0" y="0" width="900" height="850" fill="#f7f7f8"/>

  <!-- Gulf / Sabine Lake context, bottom-right -->
  <path d="M 620,760 C 660,780 720,800 780,820 L 900,850 L 900,780 C 850,760 760,730 700,715 Z" fill="#cfe3f2"/>
  <text x="770" y="795" font-size="13" fill="#5b7f96" font-style="italic">Gulf Coast</text>

  <!-- Service area shape -->
  <path d="M 330,190
           C 400,145 520,130 630,138
           C 715,144 790,162 818,196
           C 838,232 806,262 796,300
           C 814,338 802,378 772,408
           C 792,438 782,470 796,500
           C 818,528 792,558 752,580
           C 742,620 732,660 704,702
           C 674,752 632,782 582,798
           C 500,818 398,812 340,792
           C 282,772 232,742 212,692
           C 192,642 197,592 222,542
           C 202,492 212,442 242,392
           C 262,342 272,292 302,242
           C 308,218 312,198 330,190 Z"
        fill="#ef4444" fill-opacity="0.14" stroke="#ef4444" stroke-width="4" stroke-linejoin="round"/>

  <!-- Reference city outside coverage -->
  <circle cx="150" cy="560" r="5" fill="#a1a1aa"/>
  <text x="162" y="565" font-size="15" fill="#71717a">Houston</text>
  <text x="162" y="582" font-size="11" fill="#a1a1aa">(outside service area)</text>

  <!-- HQ marker -->
  <circle cx="598" cy="560" r="8" fill="#141416"/>
  <circle cx="598" cy="560" r="13" fill="none" stroke="#141416" stroke-width="2"/>
  <text x="612" y="556" font-size="19" font-weight="800" fill="#141416">Beaumont</text>
  <text x="612" y="575" font-size="12" fill="#71717a">Headquarters</text>

  <!-- Service town markers -->
  <g fill="#ef4444">
    <circle cx="470" cy="245" r="5"/>
    <circle cx="655" cy="200" r="5"/>
    <circle cx="757" cy="235" r="5"/>
    <circle cx="518" cy="480" r="5"/>
    <circle cx="565" cy="500" r="5"/>
    <circle cx="646" cy="558" r="5"/>
    <circle cx="718" cy="608" r="5"/>
    <circle cx="765" cy="572" r="5"/>
    <circle cx="697" cy="522" r="5"/>
    <circle cx="248" cy="300" r="5"/>
  </g>
  <g font-size="14" fill="#3f3f46">
    <text x="480" y="240">Woodville</text>
    <text x="665" y="196">Jasper</text>
    <text x="712" y="230">Newton</text>
    <text x="528" y="476">Kountze</text>
    <text x="575" y="498">Silsbee</text>
    <text x="580" y="562">Vidor</text>
    <text x="728" y="605">Bridge City</text>
    <text x="704" y="568">Orange</text>
    <text x="608" y="520">Mauriceville</text>
    <text x="200" y="296">Livingston</text>
  </g>

  <!-- Legend -->
  <g transform="translate(30,30)">
    <rect x="0" y="0" width="230" height="56" rx="10" fill="#ffffff" stroke="#eeeeef"/>
    <circle cx="24" cy="20" r="6" fill="#141416"/>
    <text x="40" y="25" font-size="13" fill="#3f3f46">Headquarters</text>
    <circle cx="24" cy="42" r="6" fill="#ef4444"/>
    <text x="40" y="47" font-size="13" fill="#3f3f46">Areas we service</text>
  </g>
</svg>
